<svg xmlns="http://www.w3.org/2000/svg"  viewBox="0 0 48 48" width="48px" height="48px"><path fill="#311b92" d="M41,15c0,0,1,4,7,9c0,0-7,12-24,12l-1-21H41z"/><path fill="#3949ab" d="M41,15c0,0,2,5,7,9c0,0-10-1-10-6C38,13.877,41,15,41,15z"/><path fill="#311b92" d="M7,15c0,0-1,4-7,9c0,0,7,12,24,12l1-21H7z"/><path fill="#ffbca7" d="M6.75,25C5,25,4,25.512,4,27c0,1.512,0.667,2.908,1.211,4c0.7,1.406,1.508,2.257,2.203,2.651	c0.7,0.397,2.586,0.53,2.586,0.53L9.75,25H8H7H6.75z"/><path fill="#ffbca7" d="M41,25h-1h-1.75L38,34.181c0,0,1.886-0.133,2.586-0.53c0.695-0.394,1.503-1.245,2.203-2.651	C43.333,29.908,44,28.512,44,27c0-1.488-1-2-2.75-2H41z"/><path fill="#ffdbd0" d="M10,13l1.167,24.003c0,0.576,0.208,1.128,0.594,1.556c0.003,0.003,0.006,0.007,0.009,0.012	c0.35,0.385,1.329,1.371,1.329,1.371C15.598,42.381,20.94,46,24,46s8.402-3.619,10.901-6.059h-0.009	c0.52-0.508,0.988-0.986,1.338-1.371c0.003-0.003,0.006-0.007,0.009-0.012c0.386-0.428,0.594-0.979,0.594-1.556L38,13H10z"/><path fill="#ffbca7" d="M20.5,37.932h7l0,0c0,1.381-2.211,2.5-3.5,2.5h0C22.711,40.432,20.5,39.312,20.5,37.932L20.5,37.932z"/><path fill="#ffbca7" d="M21.75,34h4.5c0,0-1.125,2-2.25,2S21.75,34,21.75,34z"/><path fill="#f5e9e8" d="M27,26.6l1.594-2.15c0,0,4.12-1.45,6.406,2.15l-1.565,2.366L28.217,29L27,26.6z"/><path fill="#9fa8da" d="M31.433,24.372c-1.248-0.219-2.411,0.798-2.597,2.273c-0.113,0.901,0.167,1.761,0.685,2.346	l3.162-0.02c0.348-0.398,0.598-0.922,0.674-1.532C33.543,25.965,32.681,24.591,31.433,24.372z"/><path fill="#212121" d="M29.286,23L27,26.6c0,0,1.062-1.201,3.429-1.2c3.429,0,4.571,1.2,4.571,1.2l-0.418-0.957	c-0.456-1.043-1.358-1.796-2.429-2.026L29.286,23z"/><path fill="#f5e9e8" d="M21,26.6l-1.594-2.15c0,0-4.12-1.45-6.406,2.15l1.565,2.366L19.783,29L21,26.6z"/><path fill="#9fa8da" d="M16.567,24.372c1.248-0.219,2.411,0.798,2.597,2.273c0.113,0.901-0.167,1.761-0.685,2.346	l-3.162-0.02c-0.348-0.398-0.598-0.922-0.674-1.532C14.457,25.965,15.318,24.591,16.567,24.372z"/><path fill="#212121" d="M18.714,23L21,26.6c0,0-1.062-1.201-3.429-1.2C14.143,25.4,13,26.6,13,26.6l0.418-0.957	c0.456-1.043,1.358-1.796,2.429-2.026L18.714,23z"/><path fill="#3949ab" d="M42,22c0-3.759-0.267-19.941-18-19.941S6,18.241,6,22c0,14,8,25,8,25	c-3.12-9.259-2.739-20.893-2.467-25.481c1.28-0.291,2.581-0.523,3.892-0.727C15.552,18.21,18,14.532,18,14.532v5.174v0.738	c1.971-0.214,3.971-0.333,6-0.333c2.174,0,4.317,0.128,6.424,0.373v-3.33c0,0,1.166,1.753,1.84,3.596	c1.464,0.219,2.917,0.474,4.343,0.802C36.878,26.17,37.112,37.763,34,47C34,47,42,36,42,22z"/><path fill="#9fa8da" d="M34.463,7.237c-0.118-0.091-0.227-0.187-0.35-0.275c-0.004-0.003-0.009-0.006-0.013-0.01	c-0.339-0.242-0.693-0.474-1.066-0.692c-3.122-0.413-6.3-0.645-9.533-0.645c-2.793,0-5.546,0.171-8.257,0.483	c-0.597,0.332-1.14,0.704-1.654,1.096c-1.912,1.532-3.216,3.515-4.079,5.704c4.515-0.973,9.188-1.513,13.991-1.513	c5.186,0,10.227,0.617,15.076,1.744C37.723,10.869,36.412,8.817,34.463,7.237z"/><path fill="#3949ab" d="M10.731,13.691c0.697-1.72,1.563-3.297,2.528-4.816c0.979-1.507,2.026-2.972,3.386-4.229l0.71,0.71	c-1.072,1.268-1.909,2.793-2.65,4.325c-0.73,1.541-1.362,3.143-1.785,4.74L10.731,13.691z"/><path fill="#3949ab" d="M31.649,13.714c-0.408-1.663-0.869-3.276-1.526-4.782c-0.651-1.507-1.533-2.906-2.631-4.196	l1.249-1.249c1.394,1.184,2.665,2.609,3.678,4.197c1.021,1.584,1.807,3.271,2.514,4.936L31.649,13.714z"/><path fill="#3949ab" d="M19.69,11.874c0.052-0.733,0.139-1.386,0.245-2.068c0.106-0.674,0.235-1.342,0.386-2.005	c0.297-1.326,0.696-2.631,1.197-3.895l1.239,0.413c-0.316,1.238-0.534,2.5-0.652,3.773c-0.062,0.636-0.104,1.273-0.122,1.91	c-0.019,0.628-0.019,1.29,0.015,1.872H19.69z"/><path fill="#3949ab" d="M7,15c0,0-2,5-7,9c0,0,10-1,10-6C10,13.877,7,15,7,15z"/></svg>