<svg width="14" height="12" viewBox="0 0 14 12" fill="none" xmlns="http://www.w3.org/2000/svg">
<path d="M11.375 11C12.8242 11 14 9.82422 14 8.375V3.125C14 1.67578 12.8242 0.5 11.375 0.5H9.07812C8.88672 0.5 8.75 0.664062 8.75 0.828125V1.92188C8.75 2.11328 8.88672 2.25 9.07812 2.25H11.375C11.8398 2.25 12.25 2.66016 12.25 3.125V8.375C12.25 8.86719 11.8398 9.25 11.375 9.25H9.07812C8.88672 9.25 8.75 9.41406 8.75 9.57812V10.6719C8.75 10.8633 8.88672 11 9.07812 11H11.375ZM10.0898 5.50391L5.49609 0.910156C5.08594 0.5 4.375 0.800781 4.375 1.375V4H0.65625C0.273438 4 0 4.30078 0 4.65625V7.28125C0 7.66406 0.273438 7.9375 0.65625 7.9375H4.375V10.5625C4.375 11.1641 5.08594 11.4375 5.49609 11.0273L10.0898 6.43359C10.3359 6.1875 10.3359 5.77734 10.0898 5.50391Z" fill="#EEEEEE"/>
</svg>
